<?xml version="1.0" encoding="utf-8"?>
<svg viewBox="58.08 19.387 348.004 442.164" xmlns="http://www.w3.org/2000/svg">
  <g id="svgg" transform="matrix(-1, 0, 0, 1, 437.155206, -0.783408)">
    <path id="primary" d="M 165.967 57.181 C 154.597 59.58 133.813 63.526 126.748 69.428 C 113.713 80.319 112.335 90.657 117.844 93.192 C 119.659 94.026 123.804 96.844 145.594 97.084 C 157.914 97.221 166.495 95.584 166.935 95.719 C 167.375 95.854 169.621 99.869 172.777 100.1 C 186.885 101.135 206.276 101.511 212.739 105.338 C 228.736 114.812 233.329 131.48 229.359 171.735 C 228.433 181.119 216.128 203.56 210.797 208.546 C 200.269 218.394 190.597 217.982 174.726 221.28 L 170.6 223.462 L 156.832 225.096 C 141.149 225.104 144.662 226.191 119.323 221.61 C 108.249 219.608 105.018 218.394 99.753 216.608 C 84.651 211.484 76.043 218.299 79.344 237.278 C 80.21 242.253 74.543 249.139 75.018 252.109 C 75.494 255.079 85.367 265.823 83.582 269.85 C 81.797 273.877 86.656 276.126 88.314 280.038 C 93.873 293.155 97.366 296.334 103.711 304.332 C 108.491 310.358 121.36 317.253 130.327 318.592 C 132.457 318.911 137.291 319.64 141.069 320.214 C 147.776 321.233 148.311 321.254 163.869 321.1 L 179.8 320.942 L 184.214 319.687 C 190.312 317.953 196.216 317.052 206.327 315.611 C 224.207 313.065 226.288 312.714 240.909 295.277 C 243.042 292.733 245.793 287.636 247.321 283.4 C 249.271 277.99 252.344 270.163 253.946 266.522 C 256.063 261.712 256.675 259.514 257.377 254.2 C 258.132 248.49 260.107 239.213 261.597 234.377 C 263.231 229.075 263.458 227.815 264.617 217.6 C 265.179 212.65 266.17 205.928 266.819 202.663 C 267.819 197.637 268 195.78 268 190.566 C 268 185.654 268.201 183.371 268.99 179.303 C 270.635 170.82 269.11 177.182 270.797 155.118 C 273.813 115.668 274.507 122.327 271.38 109.91 C 270.321 105.708 269.869 101.643 269.63 99.041 C 268.593 87.742 264.32 86.039 263.747 83.8 C 262.401 78.542 259.379 74.612 252.8 69.561 C 250.93 68.125 247.632 65.566 245.472 63.873 C 241.097 60.446 236.323 57.944 232.4 57.023 C 228.153 56.025 170.798 56.161 165.967 57.181 M 313.058 170.443 C 308.635 171.482 305.846 169.895 305.959 177.824 C 306.19 194.006 299.753 201.725 314.735 201.678 C 320.554 201.66 338.342 201.696 340.584 202.341 C 349.987 205.047 347.086 200.793 345.046 187.162 C 343.113 174.244 338.286 167.695 324.369 166.413 C 317.238 165.756 315.679 165.177 313.506 165.688" stroke="none" fill="#f70405" fill-rule="evenodd"/>
    <path id="secondary" d="M 268.105 119.972 C 268.105 119.972 269.126 170.76 267.391 186.469 C 265.104 207.177 261.295 235.406 255.922 255 C 244.708 295.897 228.486 305.961 218.189 310.107 C 194.97 319.456 161.936 319.358 168.024 319.218 C 171.718 319.133 138.945 322.922 114.885 305.729 C 93.129 290.182 76.324 249.023 75.852 249.831 C 74.466 252.205 75.299 260.473 74.934 270.993 C 74.739 276.604 75.758 283.715 75.495 286.134 C 74.935 291.299 75.633 296.576 76.744 302.11 C 77.186 304.31 77.586 307.82 77.823 309.91 C 78.06 312 78.784 316.431 79.432 319.756 C 80.08 323.081 81.439 328.841 81.884 332.556 C 83.799 348.565 79.203 354.99 82.54 365.656 C 86.687 378.912 90.727 376.579 90.802 393.91 C 90.875 410.664 96.328 418.917 102.844 421.799 C 107.946 424.056 136.021 423.412 140.414 421.147 C 146.062 418.235 149.999 403.582 148.289 393.4 C 148.068 392.08 148.551 388.784 148.229 386.075 C 147.161 377.103 148.975 377.959 143.744 371.847 C 138.309 365.496 126.756 363.191 126.079 360.463 C 125.323 357.42 122.818 359.642 134.163 360.247 C 151.602 361.178 164.341 366.291 173.28 364.543 C 177.125 363.791 180.785 363.659 183.502 363.918 C 189.664 364.503 193.76 363.204 197.502 364.203 C 201.486 365.268 203.853 364.147 206.075 366.309 C 207.403 367.601 206.862 366.705 207.099 369.973 C 207.327 373.121 208.525 377.301 207.381 377.76 C 199.987 380.725 210.401 401.062 211.684 407.865 C 213.568 417.853 211.095 419.296 213.662 426.127 C 224.525 455.039 250.446 449.335 267.305 440.868 C 274.301 437.355 285.943 430.475 286.845 421.874 C 287.413 416.463 288.555 365.985 288.775 364.784 C 288.995 363.583 292.556 345.832 292.556 345.832 L 293.676 276.168 C 293.758 225.368 290.18 206.45 289.836 203.8 C 289.574 201.776 288.777 191.151 288.613 179.232 C 288.286 155.478 292.8 155.964 289.286 143.168 C 288.319 139.648 285.513 130.964 284.469 125.574 C 280.063 102.82 265.558 66.992 262.357 70.534 M 306.933 251.492 C 306.861 295.614 306.789 316.599 305.887 324.757 C 305.158 331.351 302.175 343.358 302.694 345.285 C 305.521 355.784 339.9 351.344 345.748 339.232 C 347.298 336.024 349.27 331.652 350.247 321.715 C 350.688 317.232 352.204 311.212 352.439 309.122 C 354.142 293.946 353.14 270.703 352.284 260.361 C 351.838 254.964 353.058 250.146 352.107 232.835 C 350.846 209.855 354.793 206.178 347.785 201.976 C 344.992 200.302 335.56 198.56 325.652 198.852 C 318.897 199.051 311.606 200.944 307.282 201.515" stroke="none" fill="#0704f4" fill-rule="evenodd"/>
    <path id="stroke" d="M 158.415 21.627 C 143.238 22.062 124.234 32.427 112.469 41.011 C 103.103 47.844 95.306 55.49 89.486 61.737 C 82.402 69.342 69.721 98.557 69.721 98.557 C 69.378 97.745 53.714 103.792 45.786 113.707 C 37.657 123.873 34.141 136.157 33.651 137.652 C 26.322 160.034 36.728 187.419 38.778 192.163 C 43.245 202.499 48.17 206.796 47.466 209.023 C 47.152 210.013 45.044 226.336 44.767 233.4 C 44.577 238.24 44.249 246.61 44.038 252 C 43.323 270.274 43.621 299.59 44.77 311 C 47.429 337.397 51.997 362.12 54.866 374.524 C 59.299 393.689 65.248 416.768 67.641 421.8 C 68.582 423.78 73.486 435.886 77.954 441.614 C 80.287 444.606 93.668 450.475 118.236 450.683 C 154.772 450.991 155.587 450.85 163.381 442.829 C 170.597 435.404 164.588 390.633 167.473 379.002 C 167.954 377.065 189.602 376.902 190.273 379.94 C 191.504 385.519 195.316 432.808 203.079 445.987 C 206.561 451.898 208.309 458.259 251.257 462.031 C 294.205 465.803 303.376 433.654 306.813 409.598 C 310.098 386.606 313.361 364.716 313.361 364.716 C 313.361 364.716 343.717 362.39 351.266 358.977 C 357.681 356.077 365.893 345.414 370.043 328.808 C 374.081 312.649 376.077 301.595 378.636 267.501 C 380.998 236.032 373.265 175.658 369.167 167.061 C 368.066 164.751 357.722 145.916 349.842 142.895 C 340.374 139.266 329.368 137.759 325.545 136.558 L 315 134.525 C 315 134.525 308.113 114.749 307.264 110.611 C 306.46 106.692 302.876 94.204 297.656 81.232 C 289.975 62.146 279.634 46.683 276.053 43.577 C 272.472 40.471 257.25 26.624 236.169 23.039 C 203.892 17.55 158.415 21.627 158.415 21.627 M 228.915 57.952 C 232.838 58.873 241.096 60.446 245.471 63.873 C 247.631 65.566 250.929 68.125 252.799 69.561 C 259.39 74.621 262.425 78.574 263.732 83.8 C 264.446 86.655 273.876 104.883 278.198 127.2 C 279.242 132.59 280.886 139.88 281.853 143.4 C 285.367 156.196 285.267 155.246 285.594 179 C 285.758 190.919 286.09 201.776 286.352 203.8 C 286.696 206.45 286.79 225.6 286.708 276.4 L 286.598 345.4 C 286.598 345.4 282.659 392.474 280.794 407.394 C 280.242 411.81 278.373 429.765 276.935 431.349 C 273.907 434.684 265.564 441.202 248.534 440.895 C 245.755 440.845 231.051 441.726 218.39 428.994 C 213.244 423.82 210.825 371.68 209.869 368.672 C 206.278 357.378 197.125 361.461 176.109 361.591 C 167.001 361.647 151.802 358.875 134.363 357.944 C 123.018 357.339 120.213 357.188 120.969 360.231 C 121.646 362.959 136.599 368.149 140.282 372.483 C 145.493 378.613 145.597 415.907 139.949 418.819 C 135.556 421.084 107.326 421.108 102.224 418.851 C 95.708 415.969 80.787 322.422 79.995 309.6 C 79.203 296.778 78.614 277.611 78.809 272 C 79.437 253.893 82.328 217.291 97.43 222.415 C 102.695 224.201 105.926 224.95 117 226.952 C 142.339 231.533 140.917 231.375 156.6 231.367 L 170.6 231.359 L 177.745 229.874 C 193.616 226.576 204.914 220.949 215.442 211.101 C 220.773 206.115 231.452 181.584 232.378 172.2 C 237.306 122.238 229.714 104.63 200.458 98.159 C 188.87 95.596 179.709 94.021 173.937 93.597 C 170.781 93.366 167.839 93.067 167.399 92.932 C 166.959 92.797 156.519 92.576 144.199 92.439 C 122.409 92.199 121.748 92.168 119.933 91.334 C 114.424 88.799 116.964 84.268 129.999 73.377 C 133.803 70.199 145.043 64.34 155.957 60.704 C 165.313 57.588 195.613 56.645 207.078 56.717 M 154.4 109.656 C 158.25 110.306 163.97 111.468 167.111 112.239 C 171.46 113.308 174.273 113.734 178.911 114.028 C 197.212 115.187 201.153 117.586 208.386 131.973 C 212.15 139.458 212.652 144.932 211.034 160.831 C 209.297 177.891 208.233 180.159 197.845 188.945 C 184.925 199.874 180.199 202.569 168.942 205.432 C 153.033 209.476 126.057 208.795 112.2 203.999 C 110.88 203.542 108.01 202.714 105.822 202.158 C 98.964 200.414 89.438 196.64 81.4 192.481 C 70.003 186.585 60.374 169.968 60.407 156.256 C 60.45 138.678 79.706 120.381 103.8 115.024 C 106.44 114.437 111.21 113.161 114.4 112.189 C 129.387 107.62 138.589 107.336 154.348 109.656 M 322.6 170.593 C 336.517 171.875 340.058 175.048 341.991 187.966 C 343.714 199.476 346.347 210.872 347.605 233.8 C 348.556 251.111 348.783 254.803 349.229 260.2 C 350.085 270.542 349.319 293.624 347.616 308.8 C 347.381 310.89 346.829 316.267 346.388 320.75 C 345.411 330.687 344.725 334.255 343.175 337.463 C 337.327 349.575 310.827 354.498 308 343.999 C 307.481 342.072 307.73 331.994 308.459 325.4 C 309.361 317.242 309.755 296.096 309.827 251.974 C 309.911 200.475 308.033 193.273 307.876 180.919 C 307.743 170.535 309.668 169.805 322.6 170.593" stroke="none" fill="#040404" fill-rule="evenodd" style=""/>
    <path id="eyes-normal" d="M 128.111 114.056 C 126.742 114.253 122.962 115.21 119.711 116.184 C 116.46 117.159 111.211 118.604 108.048 119.396 C 91.746 123.478 84.856 127.055 75.772 136.152 C 64.528 147.413 62.74 159.42 71.528 164.665 C 79.71 169.549 92.266 171.983 109.329 171.995 C 113.25 171.998 119.725 172.284 123.718 172.632 C 136.036 173.704 160.551 173.282 165.648 171.909 C 180.364 167.946 188.792 158.659 195.152 139.4 C 200.201 124.113 197.249 119.344 179 119.191 C 175.288 119.16 174.73 117.828 173.49 117.633 C 171.51 117.323 170.134 118.06 169.052 117.634 C 168.053 117.241 165.246 117.626 160.685 116.372 C 149.128 113.195 136.668 112.828 128.111 114.056 M 140 119.196 C 152.614 120.443 160.362 129.94 155.725 138.469 C 153.033 143.421 149.611 144.513 132.8 145.789 C 123.79 146.473 112.473 147.369 104.937 147.996 C 92.052 149.067 88.085 148.115 85.963 143.441 C 83.146 137.238 88.028 129.892 97.032 126.787 C 103.257 124.641 125.96 119.671 131.6 119.22 C 133.69 119.053 135.58 118.895 135.8 118.869 C 136.02 118.842 137.91 118.99 140 119.196" stroke="none" fill-rule="evenodd" fill="#95c9dc"/>
    <path id="eyes-light" d="M131.600 119.220 C 125.960 119.671,103.257 124.641,97.032 126.787 C 88.028 129.892,83.146 137.238,85.963 143.441 C 88.085 148.115,92.052 149.067,104.937 147.996 C 112.473 147.369,123.790 146.473,132.800 145.789 C 149.611 144.513,153.033 143.421,155.725 138.469 C 160.830 129.080,148.861 117.306,135.800 118.869 C 135.580 118.895,133.690 119.053,131.600 119.220 " stroke="none" fill-rule="evenodd" fill="#fdffff"/>
    <path id="eyes-dark" d="M 131.2 108.394 C 126.763 108.762 122.43 109.741 114.4 112.189 C 111.21 113.161 106.44 114.437 103.8 115.024 C 79.706 120.381 60.45 138.678 60.407 156.256 C 60.374 169.968 70.003 186.585 81.4 192.481 C 89.438 196.64 98.964 200.414 105.822 202.158 C 108.01 202.714 110.88 203.542 112.2 203.999 C 126.057 208.795 153.033 209.476 168.942 205.432 C 180.199 202.569 184.925 199.874 197.845 188.945 C 208.233 180.159 209.297 177.891 211.034 160.831 C 212.652 144.932 212.15 139.458 208.386 131.973 C 201.153 117.586 197.212 115.187 178.911 114.028 C 174.273 113.734 171.46 113.308 167.111 112.239 C 153.848 108.982 140.868 107.592 131.2 108.394 M 149.485 114.195 C 151.732 114.515 156.772 115.494 160.685 116.372 C 169.629 118.378 171.591 118.68 179 119.191 C 197.277 120.454 200.201 124.113 195.152 139.4 C 188.792 158.659 180.364 167.946 165.648 171.909 C 160.551 173.282 136.036 173.704 123.718 172.632 C 119.725 172.284 113.25 171.998 109.329 171.995 C 92.266 171.983 79.71 169.549 71.528 164.665 C 62.74 159.42 64.528 147.413 75.772 136.152 C 84.856 127.055 91.746 123.478 108.048 119.396 C 111.211 118.604 116.46 117.159 119.711 116.184 C 128.573 113.529 139.819 113.208 149.485 114.195" stroke="none" fill-rule="evenodd" fill="#4c636d"/>
  </g>
</svg>